<svg width="1357" height="25" viewBox="0 0 1357 25" fill="none" xmlns="http://www.w3.org/2000/svg">
<path d="M21.3972 14.4173L19.3879 10.1566C19.3928 10.0292 19.3977 9.90173 19.3977 9.77311C19.3977 4.41744 15.0548 0.0750732 9.69882 0.0750732C7.93579 0.0750732 6.28342 0.54557 4.85897 1.36722C4.86227 1.3925 4.86717 1.42599 4.87368 1.4673C4.89003 1.57465 4.91619 1.73395 4.95211 1.93731C5.0252 2.34447 5.14081 2.92849 5.30947 3.62603C5.58918 4.78218 6.01721 6.2507 6.63593 7.74052C7.05576 7.59191 7.50781 7.51023 7.97588 7.51023C8.8049 7.51023 9.58166 7.76338 10.2212 8.19631C10.862 8.6292 11.3704 9.24098 11.6755 9.96259C11.8793 10.4433 11.9916 10.9734 11.9912 11.5259C11.9916 12.3549 11.738 13.1313 11.3051 13.7716C10.8722 14.412 10.2605 14.92 9.53924 15.2255C9.05816 15.4289 8.52806 15.5416 7.97593 15.5416C7.14686 15.5416 6.3701 15.288 5.73017 14.8551C5.0898 14.4222 4.58135 13.8108 4.27587 13.0892C4.07251 12.6081 3.9602 12.0784 3.96059 11.5259C3.95981 10.6969 4.2138 9.92008 4.64668 9.2802C4.8448 8.98695 5.08039 8.7219 5.34709 8.49078C4.64668 6.84209 4.17706 5.23263 3.87158 3.97398C3.70865 3.29929 3.59304 2.72595 3.51548 2.30166C1.36815 4.08061 0 6.76696 0 9.77273C0 12.7854 1.37261 15.4767 3.52727 17.256V20.6837C3.52727 21.0181 3.72656 21.3208 4.03451 21.451L12.0671 24.8586C12.3244 24.9677 12.6193 24.9411 12.852 24.7872C13.0856 24.6324 13.2261 24.3714 13.2261 24.0925V21.1872C13.2261 20.7278 13.599 20.3537 14.0584 20.3537H18.1725C18.6332 20.3537 19.0056 19.9804 19.0056 19.521V17.0159C19.0056 16.697 19.1882 16.4058 19.4749 16.2662L21.0076 15.5221C21.4184 15.3219 21.5924 14.8298 21.3972 14.4173Z" fill="#F39A9A"/>
<path d="M41.8024 15.5952L36.4591 15.1717L35.612 22.2744L32.6471 22.4047L31.4091 4.81086L43.2034 4.45247L43.1057 6.24443L37.4692 6.89605L36.6872 13.2494L41.6395 13.1842L41.8024 15.5952Z" fill="#F39A9A"/>
<path d="M47.439 22.5676L46.1032 3.96375L51.8049 3.08406L50.0781 22.3395L47.439 22.5676Z" fill="#F39A9A"/>
<path d="M56.8549 22.5676L55.5191 9.33964L61.2208 8.49253L59.494 22.3395L56.8549 22.5676ZM56.3336 6.40734C55.8558 5.90776 55.6169 5.3213 55.6169 4.64795C55.6169 3.95289 55.8558 3.36643 56.3336 2.88857C56.8332 2.41071 57.4197 2.17178 58.093 2.17178C58.7664 2.17178 59.342 2.41071 59.8198 2.88857C60.3194 3.36643 60.5692 3.95289 60.5692 4.64795C60.5692 5.3213 60.3194 5.90776 59.8198 6.40734C59.342 6.88519 58.7664 7.12412 58.093 7.12412C57.4197 7.12412 56.8332 6.88519 56.3336 6.40734Z" fill="#F39A9A"/>
<path d="M69.1055 20.4824C70.7997 20.4824 72.407 20.2 73.9275 19.6353L74.742 22.2092C73.4822 22.6219 72.1681 22.8282 70.7997 22.8282C69.4313 22.8282 68.2149 22.6762 67.1506 22.3721C66.108 22.0897 65.3261 21.7096 64.8048 21.2318C64.5441 19.9502 64.4029 18.7665 64.3812 17.6804C64.3812 15.4649 64.8808 13.4449 65.8799 11.6203C66.9008 9.79578 68.0629 8.51425 69.3661 7.77574L73.9926 10.8058C71.7554 12.0222 69.9852 13.4666 68.6819 15.1391C67.4004 16.7899 66.7596 18.5167 66.7596 20.3195C67.5198 20.4281 68.3018 20.4824 69.1055 20.4824Z" fill="#F39A9A"/>
<path d="M89.3384 9.2419L85.2006 13.5752L91 22.2418L85.9173 22.5676L82.5941 16.3446L81.6166 17.2569L81.1605 22.3395L78.5214 22.5676L77.1856 3.96375L82.8873 3.08406L81.8773 14.5852L87.5464 7.87349L89.3384 9.2419Z" fill="#F39A9A"/>
<path d="M1222.87 7.316V18.5H1221.75V13.268H1215.68V18.5H1214.56V7.316H1215.68V12.34H1221.75V7.316H1222.87ZM1229.24 18.628C1228.42 18.628 1227.68 18.4467 1227.02 18.084C1226.37 17.7107 1225.85 17.188 1225.47 16.516C1225.1 15.8333 1224.91 15.0387 1224.91 14.132C1224.91 13.2253 1225.1 12.436 1225.48 11.764C1225.87 11.0813 1226.39 10.5587 1227.05 10.196C1227.71 9.82267 1228.46 9.636 1229.28 9.636C1230.1 9.636 1230.84 9.82267 1231.5 10.196C1232.17 10.5587 1232.7 11.0813 1233.07 11.764C1233.45 12.436 1233.64 13.2253 1233.64 14.132C1233.64 15.028 1233.45 15.8173 1233.07 16.5C1232.68 17.1827 1232.16 17.7107 1231.48 18.084C1230.81 18.4467 1230.07 18.628 1229.24 18.628ZM1229.24 17.652C1229.82 17.652 1230.35 17.524 1230.84 17.268C1231.34 17.0013 1231.73 16.6067 1232.03 16.084C1232.34 15.5507 1232.49 14.9 1232.49 14.132C1232.49 13.364 1232.34 12.7187 1232.04 12.196C1231.75 11.6627 1231.35 11.268 1230.86 11.012C1230.37 10.7453 1229.84 10.612 1229.26 10.612C1228.68 10.612 1228.15 10.7453 1227.66 11.012C1227.17 11.268 1226.78 11.6627 1226.48 12.196C1226.19 12.7187 1226.04 13.364 1226.04 14.132C1226.04 14.9 1226.19 15.5507 1226.48 16.084C1226.78 16.6067 1227.16 17.0013 1227.64 17.268C1228.14 17.524 1228.67 17.652 1229.24 17.652ZM1246.09 9.604C1247.11 9.604 1247.94 9.92933 1248.58 10.58C1249.23 11.22 1249.56 12.1533 1249.56 13.38V18.5H1248.45V13.508C1248.45 12.5587 1248.22 11.8333 1247.77 11.332C1247.31 10.8307 1246.68 10.58 1245.89 10.58C1245.07 10.58 1244.42 10.852 1243.93 11.396C1243.44 11.94 1243.19 12.7293 1243.19 13.764V18.5H1242.09V13.508C1242.09 12.5587 1241.86 11.8333 1241.4 11.332C1240.94 10.8307 1240.31 10.58 1239.51 10.58C1238.69 10.58 1238.03 10.852 1237.54 11.396C1237.05 11.94 1236.81 12.7293 1236.81 13.764V18.5H1235.69V9.764H1236.81V11.268C1237.08 10.724 1237.48 10.3133 1237.99 10.036C1238.5 9.748 1239.07 9.604 1239.7 9.604C1240.46 9.604 1241.12 9.78533 1241.69 10.148C1242.26 10.5107 1242.68 11.044 1242.93 11.748C1243.17 11.0547 1243.57 10.5267 1244.13 10.164C1244.71 9.79067 1245.36 9.604 1246.09 9.604ZM1259.95 13.684C1259.95 14.068 1259.94 14.3613 1259.92 14.564H1252.67C1252.7 15.2253 1252.86 15.7907 1253.15 16.26C1253.44 16.7293 1253.82 17.0867 1254.29 17.332C1254.75 17.5667 1255.27 17.684 1255.82 17.684C1256.55 17.684 1257.15 17.508 1257.65 17.156C1258.15 16.804 1258.48 16.3293 1258.64 15.732H1259.82C1259.61 16.5853 1259.15 17.284 1258.45 17.828C1257.75 18.3613 1256.88 18.628 1255.82 18.628C1255 18.628 1254.26 18.4467 1253.61 18.084C1252.96 17.7107 1252.45 17.188 1252.08 16.516C1251.71 15.8333 1251.53 15.0387 1251.53 14.132C1251.53 13.2253 1251.71 12.4307 1252.08 11.748C1252.44 11.0653 1252.95 10.5427 1253.6 10.18C1254.25 9.81733 1254.99 9.636 1255.82 9.636C1256.65 9.636 1257.38 9.81733 1258 10.18C1258.63 10.5427 1259.11 11.0333 1259.44 11.652C1259.78 12.26 1259.95 12.9373 1259.95 13.684ZM1258.81 13.652C1258.82 13.0013 1258.69 12.4467 1258.41 11.988C1258.15 11.5293 1257.78 11.1827 1257.31 10.948C1256.84 10.7133 1256.33 10.596 1255.77 10.596C1254.94 10.596 1254.23 10.8627 1253.65 11.396C1253.06 11.9293 1252.73 12.6813 1252.67 13.652H1258.81Z" fill="#81E8FF"/>
<path d="M1317.1 15.844H1312.01L1311.03 18.5H1309.85L1313.93 7.46H1315.19L1319.26 18.5H1318.07L1317.1 15.844ZM1316.76 14.916L1314.55 8.868L1312.34 14.916H1316.76ZM1322.16 11.7C1322.45 11.092 1322.89 10.596 1323.49 10.212C1324.09 9.828 1324.81 9.636 1325.63 9.636C1326.43 9.636 1327.14 9.82267 1327.77 10.196C1328.4 10.5587 1328.89 11.0813 1329.25 11.764C1329.61 12.436 1329.79 13.22 1329.79 14.116C1329.79 15.012 1329.61 15.8013 1329.25 16.484C1328.89 17.1667 1328.4 17.6947 1327.76 18.068C1327.13 18.4413 1326.42 18.628 1325.63 18.628C1324.8 18.628 1324.08 18.4413 1323.47 18.068C1322.87 17.684 1322.43 17.188 1322.16 16.58V18.5H1321.05V6.66H1322.16V11.7ZM1328.65 14.116C1328.65 13.3907 1328.51 12.7667 1328.22 12.244C1327.94 11.7107 1327.56 11.3053 1327.07 11.028C1326.58 10.7507 1326.02 10.612 1325.41 10.612C1324.81 10.612 1324.26 10.756 1323.76 11.044C1323.27 11.332 1322.88 11.7427 1322.59 12.276C1322.3 12.8093 1322.16 13.428 1322.16 14.132C1322.16 14.836 1322.3 15.4547 1322.59 15.988C1322.88 16.5213 1323.27 16.932 1323.76 17.22C1324.26 17.508 1324.81 17.652 1325.41 17.652C1326.02 17.652 1326.58 17.5133 1327.07 17.236C1327.56 16.948 1327.94 16.5373 1328.22 16.004C1328.51 15.46 1328.65 14.8307 1328.65 14.116ZM1335.67 18.628C1334.85 18.628 1334.11 18.4467 1333.45 18.084C1332.8 17.7107 1332.28 17.188 1331.9 16.516C1331.52 15.8333 1331.34 15.0387 1331.34 14.132C1331.34 13.2253 1331.53 12.436 1331.91 11.764C1332.3 11.0813 1332.82 10.5587 1333.48 10.196C1334.14 9.82267 1334.88 9.636 1335.71 9.636C1336.53 9.636 1337.27 9.82267 1337.93 10.196C1338.6 10.5587 1339.12 11.0813 1339.5 11.764C1339.88 12.436 1340.07 13.2253 1340.07 14.132C1340.07 15.028 1339.88 15.8173 1339.5 16.5C1339.11 17.1827 1338.59 17.7107 1337.91 18.084C1337.24 18.4467 1336.5 18.628 1335.67 18.628ZM1335.67 17.652C1336.25 17.652 1336.78 17.524 1337.27 17.268C1337.76 17.0013 1338.16 16.6067 1338.46 16.084C1338.77 15.5507 1338.92 14.9 1338.92 14.132C1338.92 13.364 1338.77 12.7187 1338.47 12.196C1338.18 11.6627 1337.78 11.268 1337.29 11.012C1336.8 10.7453 1336.27 10.612 1335.69 10.612C1335.11 10.612 1334.58 10.7453 1334.09 11.012C1333.6 11.268 1333.2 11.6627 1332.91 12.196C1332.62 12.7187 1332.47 13.364 1332.47 14.132C1332.47 14.9 1332.62 15.5507 1332.91 16.084C1333.2 16.6067 1333.59 17.0013 1334.07 17.268C1334.56 17.524 1335.1 17.652 1335.67 17.652ZM1349.68 9.764V18.5H1348.56V16.964C1348.31 17.508 1347.91 17.924 1347.38 18.212C1346.85 18.5 1346.25 18.644 1345.59 18.644C1344.54 18.644 1343.69 18.324 1343.03 17.684C1342.37 17.0333 1342.04 16.0947 1342.04 14.868V9.764H1343.14V14.74C1343.14 15.6893 1343.37 16.4147 1343.84 16.916C1344.32 17.4173 1344.97 17.668 1345.8 17.668C1346.64 17.668 1347.31 17.4013 1347.81 16.868C1348.31 16.3347 1348.56 15.5507 1348.56 14.516V9.764H1349.68ZM1353.7 10.708V16.132C1353.7 16.6653 1353.8 17.0333 1354 17.236C1354.2 17.4387 1354.56 17.54 1355.07 17.54H1356.1V18.5H1354.9C1354.11 18.5 1353.52 18.3187 1353.14 17.956C1352.75 17.5827 1352.56 16.9747 1352.56 16.132V10.708H1351.34V9.764H1352.56V7.572H1353.7V9.764H1356.1V10.708H1353.7Z" fill="#E7F9FC"/>
</svg>
