<svg width="40" height="47" viewBox="0 0 40 47" fill="none" xmlns="http://www.w3.org/2000/svg">
<path d="M39.8509 27.2175L36.1087 19.2822C36.118 19.0449 36.127 18.8075 36.127 18.568C36.127 8.59337 28.0387 0.505981 18.0634 0.505981C14.7799 0.505981 11.7025 1.38225 9.04953 2.91252C9.05568 2.95961 9.06481 3.02199 9.07692 3.09891C9.10738 3.29886 9.15611 3.59553 9.223 3.97428C9.35913 4.73258 9.57445 5.82029 9.88856 7.11942C10.4095 9.27267 11.2067 12.0077 12.359 14.7824C13.1409 14.5056 13.9828 14.3535 14.8546 14.3535C16.3986 14.3535 17.8452 14.825 19.0364 15.6313C20.2297 16.4375 21.1767 17.5769 21.7449 18.9209C22.1245 19.8161 22.3335 20.8034 22.3328 21.8324C22.3336 23.3764 21.8613 24.8224 21.055 26.0149C20.2489 27.2076 19.1095 28.1537 17.7662 28.7228C16.8703 29.1015 15.883 29.3114 14.8547 29.3114C13.3106 29.3114 11.8639 28.8391 10.6721 28.0328C9.47944 27.2266 8.53248 26.088 7.96355 24.744C7.5848 23.848 7.37563 22.8615 7.37636 21.8324C7.37491 20.2884 7.84794 18.8417 8.65415 17.65C9.02314 17.1038 9.46191 16.6102 9.95862 16.1797C8.65415 13.1091 7.77951 10.1116 7.21057 7.76745C6.90712 6.51089 6.69181 5.44308 6.54736 4.65286C2.54809 7.96604 0 12.9692 0 18.5673C0 24.1782 2.55641 29.1906 6.56932 32.5044V38.8882C6.56932 39.5111 6.94048 40.0748 7.51402 40.3174L22.4743 46.6638C22.9535 46.8669 23.5026 46.8175 23.9361 46.5307C24.3712 46.2425 24.6329 45.7564 24.6329 45.2369V39.826C24.6329 38.9704 25.3273 38.2737 26.1829 38.2737H33.8452C34.7031 38.2737 35.3968 37.5785 35.3968 36.7228V32.0573C35.3968 31.4632 35.7368 30.9209 36.2707 30.6609L39.1253 29.2751C39.8904 28.9022 40.2145 27.9857 39.8509 27.2175Z" fill="#EEF3F9"/>
</svg>
