<svg width="91" height="25" viewBox="0 0 91 25" fill="none" xmlns="http://www.w3.org/2000/svg">
<path d="M21.3972 14.4173L19.3879 10.1566C19.3928 10.0292 19.3977 9.90173 19.3977 9.77311C19.3977 4.41744 15.0548 0.0750732 9.69882 0.0750732C7.93579 0.0750732 6.28342 0.54557 4.85897 1.36722C4.86227 1.3925 4.86717 1.42599 4.87368 1.4673C4.89003 1.57465 4.91619 1.73395 4.95211 1.93731C5.0252 2.34447 5.14081 2.92849 5.30947 3.62603C5.58918 4.78218 6.01721 6.2507 6.63593 7.74052C7.05576 7.59191 7.50781 7.51023 7.97588 7.51023C8.8049 7.51023 9.58166 7.76338 10.2212 8.19631C10.862 8.6292 11.3704 9.24098 11.6755 9.96259C11.8793 10.4433 11.9916 10.9734 11.9912 11.5259C11.9916 12.3549 11.738 13.1313 11.3051 13.7716C10.8722 14.412 10.2605 14.92 9.53924 15.2255C9.05816 15.4289 8.52806 15.5416 7.97593 15.5416C7.14686 15.5416 6.3701 15.288 5.73017 14.8551C5.0898 14.4222 4.58135 13.8108 4.27587 13.0892C4.07251 12.6081 3.9602 12.0784 3.96059 11.5259C3.95981 10.6969 4.2138 9.92008 4.64668 9.2802C4.8448 8.98695 5.08039 8.7219 5.34709 8.49078C4.64668 6.84209 4.17706 5.23263 3.87158 3.97398C3.70865 3.29929 3.59304 2.72595 3.51548 2.30166C1.36815 4.08061 0 6.76696 0 9.77273C0 12.7854 1.37261 15.4767 3.52727 17.256V20.6837C3.52727 21.0181 3.72656 21.3208 4.03451 21.451L12.0671 24.8586C12.3244 24.9677 12.6193 24.9411 12.852 24.7872C13.0856 24.6324 13.2261 24.3714 13.2261 24.0925V21.1872C13.2261 20.7278 13.599 20.3537 14.0584 20.3537H18.1725C18.6332 20.3537 19.0056 19.9804 19.0056 19.521V17.0159C19.0056 16.697 19.1882 16.4058 19.4749 16.2662L21.0076 15.5221C21.4184 15.3219 21.5924 14.8298 21.3972 14.4173Z" fill="white"/>
<path d="M41.8024 15.5952L36.4591 15.1717L35.612 22.2744L32.6471 22.4047L31.4091 4.81086L43.2034 4.45247L43.1057 6.24443L37.4692 6.89605L36.6872 13.2494L41.6395 13.1842L41.8024 15.5952Z" fill="white"/>
<path d="M47.439 22.5676L46.1032 3.96375L51.8049 3.08406L50.0781 22.3395L47.439 22.5676Z" fill="white"/>
<path d="M56.8549 22.5676L55.5191 9.33964L61.2208 8.49253L59.494 22.3395L56.8549 22.5676ZM56.3336 6.40734C55.8558 5.90776 55.6169 5.3213 55.6169 4.64795C55.6169 3.95289 55.8558 3.36643 56.3336 2.88857C56.8332 2.41071 57.4197 2.17178 58.093 2.17178C58.7664 2.17178 59.342 2.41071 59.8198 2.88857C60.3194 3.36643 60.5692 3.95289 60.5692 4.64795C60.5692 5.3213 60.3194 5.90776 59.8198 6.40734C59.342 6.88519 58.7664 7.12412 58.093 7.12412C57.4197 7.12412 56.8332 6.88519 56.3336 6.40734Z" fill="white"/>
<path d="M69.1055 20.4824C70.7997 20.4824 72.407 20.2 73.9275 19.6353L74.742 22.2092C73.4822 22.6219 72.1681 22.8282 70.7997 22.8282C69.4313 22.8282 68.2149 22.6762 67.1506 22.3721C66.108 22.0897 65.3261 21.7096 64.8048 21.2318C64.5441 19.9502 64.4029 18.7665 64.3812 17.6804C64.3812 15.4649 64.8808 13.4449 65.8799 11.6203C66.9008 9.79578 68.0629 8.51425 69.3661 7.77574L73.9926 10.8058C71.7554 12.0222 69.9852 13.4666 68.6819 15.1391C67.4004 16.7899 66.7596 18.5167 66.7596 20.3195C67.5198 20.4281 68.3018 20.4824 69.1055 20.4824Z" fill="white"/>
<path d="M89.3384 9.2419L85.2006 13.5752L91 22.2418L85.9173 22.5676L82.5941 16.3446L81.6166 17.2569L81.1605 22.3395L78.5214 22.5676L77.1856 3.96375L82.8873 3.08406L81.8773 14.5852L87.5464 7.87349L89.3384 9.2419Z" fill="white"/>
</svg>
