<svg width="343" height="71" viewBox="0 0 343 71" fill="none" xmlns="http://www.w3.org/2000/svg">
<rect width="336" height="0" transform="translate(2 6)" fill="#868686"/>
<path opacity="0.3" d="M2 6H342" stroke="white" stroke-width="2" stroke-linecap="round"/>
<path opacity="0.8" d="M2 6H151" stroke="#FBFDFC" stroke-width="3" stroke-linecap="round"/>
<path d="M152.09 12C150.418 12 148.985 11.4453 147.791 10.3358C146.597 9.16788 146 7.70803 146 5.95621C146 4.20438 146.597 2.77372 147.791 1.66423C148.985 0.554745 150.418 0 152.09 0C153.701 0 155.075 0.554745 156.209 1.66423C157.403 2.77372 158 4.20438 158 5.95621C158 7.70803 157.403 9.16788 156.209 10.3358C155.075 11.4453 153.701 12 152.09 12Z" fill="#E4EFF6"/>
<path d="M17 50.2727H27V53.2727L31 49.2727L27 45.2727V48.2727H15V54.2727H17V50.2727ZM27 60.2727H17V57.2727L13 61.2727L17 65.2727V62.2727H29V56.2727H27V60.2727Z" fill="#E9F3F5"/>
<path d="M87 46.2727H90V64.2727H87V46.2727ZM92.25 55.2727L105 64.2727V46.2727L92.25 55.2727Z" fill="#E9F3F5"/>
<path d="M161 40V70.5455L185 55.2727L161 40Z" fill="#E9F3F5"/>
<path d="M241 64.2727L253.75 55.2727L241 46.2727V64.2727ZM256 46.2727V64.2727H259V46.2727H256Z" fill="#E9F3F5"/>
<path d="M321.59 52.4427L316.41 47.2727L315 48.6827L320.17 53.8527L321.59 52.4427ZM325.5 47.2727L327.54 49.3127L315 61.8627L316.41 63.2727L328.96 50.7327L331 52.7727V47.2727H325.5ZM325.83 56.6827L324.42 58.0927L327.55 61.2227L325.5 63.2727H331V57.7727L328.96 59.8127L325.83 56.6827Z" fill="#E9F3F5"/>
</svg>
