<svg width="20" height="20" viewBox="0 0 20 20" fill="none" xmlns="http://www.w3.org/2000/svg">
<circle cx="10" cy="9.16667" r="1.66667" stroke="#7E7D8F" stroke-width="1.25" stroke-linecap="round"/>
<path d="M3.33329 14.1674C2.28678 12.7745 1.66663 11.043 1.66663 9.16659C1.66663 4.56421 5.39759 0.833252 9.99996 0.833252C14.6023 0.833252 18.3333 4.56421 18.3333 9.16659C18.3333 11.043 17.7131 12.7745 16.6666 14.1674" stroke="#7E7D8F" stroke-width="1.25" stroke-linecap="round"/>
<path d="M6.27316 12.5001C5.48142 11.6155 5 10.4473 5 9.16675C5 6.40532 7.23858 4.16675 10 4.16675C12.7614 4.16675 15 6.40532 15 9.16675C15 10.4473 14.5186 11.6155 13.7268 12.5001" stroke="#7E7D8F" stroke-width="1.25" stroke-linecap="round"/>
<path d="M8.29299 14.8965C8.93523 13.9649 9.25635 13.4991 9.67322 13.3793C9.88706 13.3179 10.113 13.3179 10.3269 13.3793C10.7437 13.4991 11.0649 13.9649 11.7071 14.8965C12.5617 16.136 12.989 16.7558 12.9067 17.2724C12.865 17.5344 12.7449 17.7762 12.5634 17.9636C12.2054 18.3333 11.4703 18.3333 10 18.3333C8.52977 18.3333 7.79464 18.3333 7.4367 17.9636C7.25518 17.7762 7.13509 17.5344 7.09337 17.2724C7.01113 16.7558 7.43841 16.136 8.29299 14.8965Z" stroke="#7E7D8F" stroke-width="1.25" stroke-linecap="round" stroke-linejoin="round"/>
</svg>
