<svg width="21" height="22" viewBox="0 0 21 22" fill="none" xmlns="http://www.w3.org/2000/svg">
<path d="M14.334 14.5242C12.0621 15.8039 10.7658 18.4555 10.354 19.1968V7.54855C10.7116 6.90484 11.7362 5.06055 13.4876 3.80704C14.2253 3.27897 14.5942 3.01494 15.0626 3.25569C15.531 3.49645 15.531 4.02788 15.531 5.09074V12.7181C15.531 13.2923 15.531 13.5794 15.4131 13.7811C15.2952 13.9828 14.9748 14.1633 14.334 14.5242Z" stroke="#7E7D8F" stroke-width="1.0354" stroke-linecap="round" stroke-linejoin="round"/>
<path d="M10.354 7.38095C9.76136 6.75839 8.04315 5.27982 5.16026 4.76141C3.69978 4.49878 2.96954 4.36747 2.34762 4.87077C1.72571 5.37408 1.72571 6.19138 1.72571 7.82598V13.7004C1.72571 15.195 1.72571 15.9423 2.12485 16.4089C2.524 16.8755 3.40275 17.0335 5.16026 17.3495C6.72696 17.6313 7.9497 18.0802 8.83473 18.5312C9.7055 18.975 10.1409 19.1969 10.354 19.1969C10.5671 19.1969 11.0025 18.975 11.8733 18.5312C12.7584 18.0802 13.9811 17.6313 15.5478 17.3495C17.3053 17.0335 18.1841 16.8755 18.5832 16.4089C18.9823 15.9423 18.9823 15.195 18.9823 13.7004V7.82598C18.9823 6.19138 18.9823 5.37408 18.3604 4.87077C17.7385 4.36747 16.3938 4.76141 15.531 5.39164" stroke="#7E7D8F" stroke-width="1.0354" stroke-linecap="round" stroke-linejoin="round"/>
</svg>
