<svg width="18" height="18" viewBox="0 0 18 18" fill="none" xmlns="http://www.w3.org/2000/svg">
<path d="M16.7646 4.95108L16.3533 4.23725C16.0422 3.69739 15.8867 3.42746 15.622 3.31982C15.3574 3.21218 15.0581 3.29712 14.4595 3.46699L13.4426 3.7534C13.0604 3.84153 12.6595 3.79154 12.3105 3.61225L12.0298 3.45027C11.7305 3.25861 11.5004 2.97603 11.373 2.64387L11.0947 1.81272C10.9117 1.2627 10.8202 0.987692 10.6024 0.830394C10.3846 0.673096 10.0953 0.673096 9.51663 0.673096H8.58765C8.00902 0.673096 7.71971 0.673096 7.50189 0.830394C7.28408 0.987692 7.19259 1.2627 7.00961 1.81272L6.73132 2.64387C6.60391 2.97603 6.37375 3.25861 6.07451 3.45027L5.79378 3.61225C5.44482 3.79154 5.04386 3.84153 4.66169 3.7534L3.64483 3.46699C3.04622 3.29712 2.74691 3.21218 2.48227 3.31982C2.21762 3.42746 2.06208 3.69739 1.751 4.23725L1.33968 4.95108C1.04809 5.45712 0.902293 5.71014 0.930589 5.97949C0.958886 6.24884 1.15406 6.4659 1.54442 6.90002L2.40363 7.86061C2.61362 8.12646 2.76271 8.58976 2.76271 9.00629C2.76271 9.4231 2.61367 9.88627 2.40365 10.1522L1.54443 11.1128C1.15407 11.5469 0.958887 11.7639 0.93059 12.0333C0.902293 12.3026 1.04809 12.5557 1.33968 13.0617L1.75099 13.7755C2.06206 14.3154 2.21762 14.5853 2.48227 14.693C2.74692 14.8006 3.04623 14.7157 3.64485 14.5458L4.66166 14.2594C5.0439 14.1712 5.44493 14.2212 5.79393 14.4006L6.07462 14.5626C6.3738 14.7542 6.60391 15.0368 6.73129 15.3689L7.00961 16.2001C7.19259 16.7502 7.28408 17.0252 7.50189 17.1825C7.71971 17.3398 8.00902 17.3398 8.58765 17.3398H9.51663C10.0953 17.3398 10.3846 17.3398 10.6024 17.1825C10.8202 17.0252 10.9117 16.7502 11.0947 16.2001L11.373 15.3689C11.5004 15.0368 11.7305 14.7542 12.0297 14.5626L12.3104 14.4006C12.6594 14.2212 13.0604 14.1712 13.4426 14.2594L14.4594 14.5458C15.0581 14.7157 15.3574 14.8006 15.622 14.693C15.8867 14.5853 16.0422 14.3154 16.3533 13.7755L16.3533 13.7755L16.7646 13.0617C17.0562 12.5557 17.202 12.3026 17.1737 12.0333C17.1454 11.7639 16.9502 11.5469 16.5599 11.1128L15.7006 10.1522C15.4906 9.88627 15.3416 9.4231 15.3416 9.00629C15.3416 8.58976 15.4907 8.12646 15.7007 7.86061L16.5599 6.90002C16.9502 6.4659 17.1454 6.24884 17.1737 5.97949C17.202 5.71014 17.0562 5.45712 16.7646 4.95108Z" stroke="#7E7D8F" stroke-width="1.25" stroke-linecap="round"/>
<path d="M11.9329 8.99992C11.9329 10.6107 10.6271 11.9166 9.01628 11.9166C7.40545 11.9166 6.09961 10.6107 6.09961 8.99992C6.09961 7.38909 7.40545 6.08325 9.01628 6.08325C10.6271 6.08325 11.9329 7.38909 11.9329 8.99992Z" stroke="#7E7D8F" stroke-width="1.25"/>
</svg>
