<svg width="96" height="29" viewBox="0 0 96 29" fill="none" xmlns="http://www.w3.org/2000/svg">
<path d="M24.2948 16.2845L22.0134 11.4468C22.0191 11.3021 22.0246 11.1574 22.0246 11.0114C22.0246 4.93042 17.0936 0 11.0123 0C9.01047 0 7.13434 0.534213 5.51698 1.46713C5.52073 1.49584 5.5263 1.53386 5.53368 1.58076C5.55225 1.70266 5.58196 1.88352 5.62274 2.11442C5.70573 2.57672 5.83699 3.23983 6.02849 4.03183C6.34608 5.34455 6.83207 7.01194 7.53458 8.70352C8.01126 8.53478 8.52454 8.44204 9.05599 8.44204C9.99729 8.44204 10.8792 8.72948 11.6054 9.22104C12.3329 9.71254 12.9102 10.4072 13.2566 11.2265C13.488 11.7723 13.6155 12.3742 13.615 13.0015C13.6155 13.9428 13.3276 14.8243 12.836 15.5514C12.3446 16.2784 11.65 16.8553 10.8311 17.2022C10.2848 17.4331 9.68295 17.561 9.05605 17.561C8.1147 17.561 7.23276 17.2731 6.50617 16.7815C5.77908 16.29 5.20177 15.5959 4.85492 14.7765C4.62402 14.2303 4.4965 13.6289 4.49694 13.0015C4.49606 12.0602 4.78444 11.1782 5.27594 10.4517C5.50089 10.1187 5.76838 9.8178 6.0712 9.55538C5.27594 7.68343 4.74272 5.856 4.39588 4.4269C4.21088 3.66085 4.07961 3.00986 3.99155 2.52811C1.55343 4.54797 0 7.59812 0 11.0109C0 14.4316 1.5585 17.4874 4.00494 19.5076V23.3994C4.00494 23.7792 4.23121 24.1228 4.58087 24.2707L13.7013 28.1398C13.9934 28.2636 14.3282 28.2335 14.5925 28.0587C14.8577 27.8829 15.0173 27.5866 15.0173 27.2699V23.9712C15.0173 23.4495 15.4406 23.0248 15.9622 23.0248H20.6335C21.1565 23.0248 21.5794 22.601 21.5794 22.0793V19.235C21.5794 18.8729 21.7867 18.5423 22.1122 18.3837L23.8525 17.5389C24.3189 17.3115 24.5165 16.7528 24.2948 16.2845Z" fill="#2B5B84"/>
<path d="M38.6226 25.1339V12.1393H35.6626V9.12002H38.6226V8.29121C38.6226 7.08745 38.8693 6.08104 39.3627 5.27196C39.856 4.44314 40.5368 3.81167 41.4051 3.37753C42.2931 2.94339 43.3094 2.72632 44.4539 2.72632C44.671 2.72632 44.9177 2.74605 45.1939 2.78552C45.4702 2.80525 45.6972 2.83485 45.8748 2.87432V5.77517C45.7169 5.7357 45.5393 5.71597 45.3419 5.71597C45.1446 5.69623 44.9867 5.68637 44.8683 5.68637C43.9803 5.68637 43.2699 5.89357 42.7371 6.30797C42.2043 6.70265 41.9379 7.36372 41.9379 8.29121V9.12002H49.6044V12.1393H41.9379V25.1339H38.6226ZM48.7164 25.1339V2.72632H52.0317V25.1339H48.7164Z" fill="#2B5B84"/>
<path d="M55.9533 25.1339V9.12002H59.2981V25.1339H55.9533ZM55.9533 6.92958V3.08152H59.2981V6.92958H55.9533Z" fill="#2B5B84"/>
<path d="M70.8162 25.4891C69.2177 25.4891 67.7969 25.124 66.5537 24.3939C65.3302 23.644 64.3534 22.6376 63.6232 21.3746C62.9128 20.1117 62.5576 18.681 62.5576 17.0825C62.5576 15.5039 62.9128 14.083 63.6232 12.8201C64.3337 11.5571 65.3105 10.5704 66.5537 9.86003C67.7969 9.12988 69.2177 8.76481 70.8162 8.76481C71.9015 8.76481 72.9178 8.96215 73.865 9.35682C74.8122 9.73176 75.6312 10.2547 76.3218 10.9256C77.0322 11.5966 77.5552 12.3761 77.8907 13.2641L74.9602 14.6257C74.6247 13.7969 74.0821 13.1358 73.3322 12.6425C72.602 12.1294 71.7634 11.8729 70.8162 11.8729C69.9084 11.8729 69.0895 12.0998 68.3593 12.5537C67.6489 12.9878 67.0865 13.6094 66.6721 14.4185C66.2577 15.2078 66.0505 16.1057 66.0505 17.1121C66.0505 18.1186 66.2577 19.0263 66.6721 19.8354C67.0865 20.6247 67.6489 21.2463 68.3593 21.7002C69.0895 22.1541 69.9084 22.381 70.8162 22.381C71.7831 22.381 72.6218 22.1344 73.3322 21.641C74.0623 21.1279 74.605 20.4471 74.9602 19.5986L77.8907 20.9898C77.5749 21.8383 77.0619 22.608 76.3514 23.2986C75.6608 23.9696 74.8418 24.5024 73.8946 24.8971C72.9474 25.2917 71.9212 25.4891 70.8162 25.4891Z" fill="#2B5B84"/>
<path d="M81.1599 25.1339V2.72632H84.5047V17.7338L83.2023 17.4081L91.2241 9.12002H95.3977L89.3592 15.5433L95.6641 25.1339H91.8161L86.192 16.6385L88.1752 16.3721L83.4391 21.4042L84.5047 19.1842V25.1339H81.1599Z" fill="#2B5B84"/>
</svg>
