<svg width="16" height="16" viewBox="0 0 16 16" fill="none" xmlns="http://www.w3.org/2000/svg">
<path d="M5.98888 12.6592V2.56408L15.3075 1.01099V11.1061M5.98888 12.6592C5.98888 13.9458 4.94586 14.9889 3.65924 14.9889C2.37261 14.9889 1.32959 13.9458 1.32959 12.6592C1.32959 11.3726 2.37261 10.3296 3.65924 10.3296C4.94586 10.3296 5.98888 11.3726 5.98888 12.6592ZM15.3075 11.1061C15.3075 12.3927 14.2644 13.4358 12.9778 13.4358C11.6912 13.4358 10.6482 12.3927 10.6482 11.1061C10.6482 9.81949 11.6912 8.77647 12.9778 8.77647C14.2644 8.77647 15.3075 9.81949 15.3075 11.1061Z" stroke="#7E7D8F" stroke-width="1.29425" stroke-linecap="round" stroke-linejoin="round"/>
</svg>
