<svg width="40" height="32" viewBox="0 0 40 32" fill="none" xmlns="http://www.w3.org/2000/svg">
<rect x="0.625" y="0.625" width="38.75" height="30.75" rx="15.375" fill="white"/>
<rect x="0.625" y="0.625" width="38.75" height="30.75" rx="15.375" stroke="#EAEBED" stroke-width="1.25"/>
<path d="M21.0001 11.5312C20.5779 11.4024 20.1301 11.3333 19.6668 11.3333C17.2376 11.3333 15.2334 13.2347 15.1057 15.6606C15.0567 16.5913 15.113 17.5819 14.2816 18.2055C13.8946 18.4958 13.6668 18.9513 13.6668 19.435C13.6668 20.1005 14.188 20.6666 14.8668 20.6666H24.4668C25.1456 20.6666 25.6668 20.1005 25.6668 19.435C25.6668 18.9513 25.4391 18.4958 25.0521 18.2055C25.0344 18.1922 25.0171 18.1788 25.0001 18.1652" stroke="#A8A8B5" stroke-linecap="round" stroke-linejoin="round"/>
<path d="M18.6668 10.0833C18.6668 10.6355 19.1145 11.3333 19.6668 11.3333C20.2191 11.3333 20.6668 10.6355 20.6668 10.0833C20.6668 9.53097 20.2191 9.33325 19.6668 9.33325C19.1145 9.33325 18.6668 9.53097 18.6668 10.0833Z" stroke="#A8A8B5"/>
<path d="M21.6668 20.6667C21.6668 21.7713 20.7714 22.6667 19.6668 22.6667C18.5622 22.6667 17.6668 21.7713 17.6668 20.6667" stroke="#A8A8B5" stroke-linecap="round" stroke-linejoin="round"/>
<path d="M27.0002 14C27.0002 12.3431 25.657 11 24.0002 11C22.3433 11 21.0002 12.3431 21.0002 14C21.0002 15.6569 22.3433 17 24.0002 17C25.657 17 27.0002 15.6569 27.0002 14Z" fill="#DC560E"/>
</svg>
