<svg width="20" height="20" viewBox="0 0 20 20" fill="none" xmlns="http://www.w3.org/2000/svg">
<path d="M2.91663 15C2.91663 13.8215 2.91663 13.2322 3.28274 12.8661C3.64886 12.5 4.23811 12.5 5.41663 12.5H5.83329C6.61897 12.5 7.0118 12.5 7.25588 12.7441C7.49996 12.9882 7.49996 13.381 7.49996 14.1667V18.3333H2.91663V15Z" stroke="#7E7D8F" stroke-width="1.25" stroke-linecap="round" stroke-linejoin="round"/>
<path d="M12.5 15.8334C12.5 15.0477 12.5 14.6549 12.7441 14.4108C12.9882 14.1667 13.381 14.1667 14.1667 14.1667H14.5833C15.7618 14.1667 16.3511 14.1667 16.7172 14.5329C17.0833 14.899 17.0833 15.4882 17.0833 16.6667V18.3334H12.5V15.8334Z" stroke="#7E7D8F" stroke-width="1.25" stroke-linecap="round" stroke-linejoin="round"/>
<path d="M1.66663 18.3333H18.3333" stroke="#7E7D8F" stroke-width="1.25" stroke-linecap="round" stroke-linejoin="round"/>
<path d="M7.5 13.3333C7.5 12.1547 7.5 11.5655 7.86612 11.1994C8.23223 10.8333 8.82149 10.8333 10 10.8333C11.1785 10.8333 11.7678 10.8333 12.1339 11.1994C12.5 11.5655 12.5 12.1547 12.5 13.3333V18.3333H7.5V13.3333Z" stroke="#7E7D8F" stroke-width="1.25" stroke-linecap="round" stroke-linejoin="round"/>
<path d="M10.5758 2.14814L11.1624 3.33104C11.2424 3.4957 11.4557 3.65365 11.6357 3.68389L12.6989 3.862C13.3789 3.97626 13.5388 4.47361 13.0489 4.96425L12.2223 5.79765C12.0823 5.93879 12.0057 6.211 12.049 6.4059L12.2856 7.43758C12.4723 8.25418 12.0423 8.57007 11.3258 8.14329L10.3292 7.54848C10.1492 7.44094 9.85258 7.44094 9.66927 7.54848L8.67271 8.14329C7.95946 8.57007 7.52618 8.25082 7.71282 7.43758L7.94946 6.4059C7.99279 6.211 7.91613 5.93879 7.77615 5.79765L6.94957 4.96425C6.46296 4.47361 6.61961 3.97626 7.29953 3.862L8.36275 3.68389C8.5394 3.65365 8.75271 3.4957 8.8327 3.33104L9.4193 2.14814C9.73926 1.50628 10.2592 1.50628 10.5758 2.14814Z" stroke="#7E7D8F" stroke-width="1.25" stroke-linecap="round" stroke-linejoin="round"/>
</svg>
