<svg width="20" height="20" viewBox="0 0 20 20" fill="none" xmlns="http://www.w3.org/2000/svg">
<path d="M10.8334 3.75C10.8334 4.44036 10.2737 5 9.58337 5C8.89302 5 8.33337 4.44036 8.33337 3.75C8.33337 3.05964 8.89302 2.5 9.58337 2.5C10.2737 2.5 10.8334 3.05964 10.8334 3.75Z" stroke="#7E7D8F" stroke-width="1.25"/>
<path d="M9.12306 17.5001L10.0655 14.6591C10.4017 13.6457 10.5697 13.139 10.3184 12.7886C10.0671 12.4383 9.5356 12.4383 8.47252 12.4383H7.44408M15 6.95463L13.5533 7.78535C12.8218 8.20534 12.4561 8.41533 12.052 8.43413C11.6478 8.45293 11.2643 8.27779 10.4974 7.9275L9.84475 7.62938M7.44408 12.4383H6.60437C5.81391 12.4383 5.41868 12.4383 5.16671 12.1272C4.91473 11.8162 4.98684 11.4664 5.13106 10.7669C5.37256 9.59542 5.85761 8.13923 6.74347 7.14901C6.98798 6.87569 7.11023 6.73903 7.3792 6.68257C7.64817 6.6261 7.86331 6.72436 8.2936 6.9209L9.84475 7.62938M7.44408 12.4383C7.64525 11.3416 8.40703 8.84438 9.84475 7.62938" stroke="#7E7D8F" stroke-width="1.25" stroke-linecap="round" stroke-linejoin="round"/>
</svg>
